<mxfile host="app.diagrams.net" modified="2021-11-19T09:45:08.338Z" agent="5.0 (Windows NT 10.0; Win64; x64) AppleWebKit/537.36 (KHTML, like Gecko) Chrome/96.0.4664.45 Safari/537.36" etag="cjfVVcY7s1xRlnrmWr0Z" version="15.8.2" type="github">
  <diagram id="921SX31d8ckm59c6BwTD" name="Page-1">
    <mxGraphModel dx="663" dy="313" grid="1" gridSize="10" guides="1" tooltips="1" connect="1" arrows="1" fold="1" page="1" pageScale="1" pageWidth="827" pageHeight="1169" math="0" shadow="0">
      <root>
        <mxCell id="0" />
        <mxCell id="1" parent="0" />
        <mxCell id="FPBPx4zB9Egi75K8QrbN-1" value="&lt;p style=&quot;line-height: 120% ; margin-top: 0pt ; margin-bottom: 0pt ; margin-left: 0in ; direction: ltr ; unicode-bidi: embed&quot;&gt;&lt;span style=&quot;font-size: 16pt ; font-family: &amp;#34;microsoft gothicneo&amp;#34;&quot;&gt;Acc&lt;/span&gt;&lt;span style=&quot;font-size: 16pt ; font-family: &amp;#34;microsoft gothicneo&amp;#34;&quot;&gt;ess&amp;nbsp;&lt;/span&gt;&lt;span style=&quot;font-size: 16pt ; font-family: &amp;#34;microsoft gothicneo&amp;#34;&quot;&gt;Delegation&lt;/span&gt;&lt;span style=&quot;font-size: 16pt ; font-family: &amp;#34;microsoft gothicneo&amp;#34;&quot;&gt; &lt;/span&gt;&lt;span style=&quot;font-size: 16pt ; font-family: &amp;#34;microsoft gothicneo&amp;#34;&quot;&gt;â€“&amp;nbsp;&lt;/span&gt;&lt;span style=&quot;font-size: 16pt ; font-family: &amp;#34;microsoft gothicneo&amp;#34;&quot;&gt;Oauth&lt;/span&gt;&lt;span style=&quot;font-size: 16pt ; font-family: &amp;#34;microsoft gothicneo&amp;#34;&quot;&gt; 2.0 &lt;/span&gt;&lt;span style=&quot;font-family: &amp;#34;microsoft gothicneo&amp;#34;&quot;&gt;&lt;font style=&quot;font-size: 16px&quot;&gt;(in WSO2 IS 5.11.0)&lt;/font&gt;&lt;/span&gt;&lt;/p&gt;" style="rounded=0;whiteSpace=wrap;html=1;" vertex="1" parent="1">
          <mxGeometry x="174" y="170" width="480" height="50" as="geometry" />
        </mxCell>
        <mxCell id="FPBPx4zB9Egi75K8QrbN-3" value="" style="shape=actor;whiteSpace=wrap;html=1;fontSize=16;" vertex="1" parent="1">
          <mxGeometry x="200" y="243" width="62" height="75" as="geometry" />
        </mxCell>
        <mxCell id="FPBPx4zB9Egi75K8QrbN-4" value="" style="shape=datastore;whiteSpace=wrap;html=1;fontSize=16;" vertex="1" parent="1">
          <mxGeometry x="541.75" y="518" width="70" height="80" as="geometry" />
        </mxCell>
        <mxCell id="FPBPx4zB9Egi75K8QrbN-5" value="" style="shape=datastore;whiteSpace=wrap;html=1;fontSize=16;" vertex="1" parent="1">
          <mxGeometry x="194" y="518" width="70" height="80" as="geometry" />
        </mxCell>
        <mxCell id="FPBPx4zB9Egi75K8QrbN-6" value="Application&lt;br style=&quot;font-size: 12px;&quot;&gt;(pickup-dispatch)" style="rounded=0;whiteSpace=wrap;html=1;fontSize=12;" vertex="1" parent="1">
          <mxGeometry x="380" y="423" width="106" height="35" as="geometry" />
        </mxCell>
        <mxCell id="FPBPx4zB9Egi75K8QrbN-7" value="WSO2 IS" style="rounded=0;whiteSpace=wrap;html=1;fontSize=12;" vertex="1" parent="1">
          <mxGeometry x="174" y="608" width="116" height="20" as="geometry" />
        </mxCell>
        <mxCell id="FPBPx4zB9Egi75K8QrbN-8" value="OAuth protected backend&lt;br style=&quot;font-size: 12px;&quot;&gt;(backend-service.jar)" style="rounded=0;whiteSpace=wrap;html=1;fontSize=12;" vertex="1" parent="1">
          <mxGeometry x="499.5" y="608" width="154.5" height="40" as="geometry" />
        </mxCell>
        <mxCell id="FPBPx4zB9Egi75K8QrbN-9" value="" style="endArrow=classic;html=1;rounded=0;fontSize=12;" edge="1" parent="1">
          <mxGeometry relative="1" as="geometry">
            <mxPoint x="273" y="282.5" as="sourcePoint" />
            <mxPoint x="440" y="330" as="targetPoint" />
            <Array as="points">
              <mxPoint x="440" y="283" />
            </Array>
          </mxGeometry>
        </mxCell>
        <mxCell id="FPBPx4zB9Egi75K8QrbN-10" value="Access&lt;br&gt;(send content)" style="edgeLabel;resizable=0;html=1;align=center;verticalAlign=middle;fontSize=12;" connectable="0" vertex="1" parent="FPBPx4zB9Egi75K8QrbN-9">
          <mxGeometry relative="1" as="geometry" />
        </mxCell>
        <mxCell id="FPBPx4zB9Egi75K8QrbN-12" value="User" style="rounded=0;whiteSpace=wrap;html=1;fontSize=12;" vertex="1" parent="1">
          <mxGeometry x="202.5" y="328" width="57" height="20" as="geometry" />
        </mxCell>
        <mxCell id="FPBPx4zB9Egi75K8QrbN-13" value="" style="strokeWidth=2;html=1;shape=mxgraph.flowchart.multi-document;whiteSpace=wrap;fontSize=12;" vertex="1" parent="1">
          <mxGeometry x="389" y="348" width="88" height="60" as="geometry" />
        </mxCell>
        <mxCell id="FPBPx4zB9Egi75K8QrbN-14" value="" style="endArrow=classic;html=1;rounded=0;fontSize=12;" edge="1" parent="1">
          <mxGeometry relative="1" as="geometry">
            <mxPoint x="530" y="577" as="sourcePoint" />
            <mxPoint x="290" y="577" as="targetPoint" />
          </mxGeometry>
        </mxCell>
        <mxCell id="FPBPx4zB9Egi75K8QrbN-15" value="Access" style="edgeLabel;resizable=0;html=1;align=center;verticalAlign=middle;fontSize=12;" connectable="0" vertex="1" parent="FPBPx4zB9Egi75K8QrbN-14">
          <mxGeometry relative="1" as="geometry" />
        </mxCell>
        <mxCell id="FPBPx4zB9Egi75K8QrbN-16" value="" style="endArrow=classic;html=1;rounded=0;fontSize=12;" edge="1" parent="1">
          <mxGeometry relative="1" as="geometry">
            <mxPoint x="290" y="543" as="sourcePoint" />
            <mxPoint x="530" y="543" as="targetPoint" />
          </mxGeometry>
        </mxCell>
        <mxCell id="FPBPx4zB9Egi75K8QrbN-17" value="Access" style="edgeLabel;resizable=0;html=1;align=center;verticalAlign=middle;fontSize=12;" connectable="0" vertex="1" parent="FPBPx4zB9Egi75K8QrbN-16">
          <mxGeometry relative="1" as="geometry" />
        </mxCell>
        <mxCell id="FPBPx4zB9Egi75K8QrbN-18" value="" style="endArrow=classic;html=1;rounded=0;fontSize=12;" edge="1" parent="1">
          <mxGeometry relative="1" as="geometry">
            <mxPoint x="486" y="370" as="sourcePoint" />
            <mxPoint x="600" y="508" as="targetPoint" />
            <Array as="points">
              <mxPoint x="600" y="370" />
            </Array>
          </mxGeometry>
        </mxCell>
        <mxCell id="FPBPx4zB9Egi75K8QrbN-19" value="send Bearer token&lt;br&gt;(Contains content)" style="edgeLabel;resizable=0;html=1;align=center;verticalAlign=middle;fontSize=12;" connectable="0" vertex="1" parent="FPBPx4zB9Egi75K8QrbN-18">
          <mxGeometry relative="1" as="geometry" />
        </mxCell>
        <mxCell id="FPBPx4zB9Egi75K8QrbN-31" value="" style="endArrow=classic;html=1;rounded=0;fontSize=12;" edge="1" parent="1">
          <mxGeometry relative="1" as="geometry">
            <mxPoint x="370" y="370" as="sourcePoint" />
            <mxPoint x="210" y="500" as="targetPoint" />
            <Array as="points">
              <mxPoint x="210" y="370" />
            </Array>
          </mxGeometry>
        </mxCell>
        <mxCell id="FPBPx4zB9Egi75K8QrbN-32" value="Enrolled in &lt;br&gt;&#39;Service Provider&#39;" style="edgeLabel;resizable=0;html=1;align=center;verticalAlign=middle;fontSize=12;" connectable="0" vertex="1" parent="FPBPx4zB9Egi75K8QrbN-31">
          <mxGeometry relative="1" as="geometry" />
        </mxCell>
        <mxCell id="FPBPx4zB9Egi75K8QrbN-33" value="" style="endArrow=classic;html=1;rounded=0;fontSize=12;" edge="1" parent="1">
          <mxGeometry relative="1" as="geometry">
            <mxPoint x="240" y="500" as="sourcePoint" />
            <mxPoint x="370" y="400" as="targetPoint" />
            <Array as="points">
              <mxPoint x="240" y="400" />
            </Array>
          </mxGeometry>
        </mxCell>
        <mxCell id="FPBPx4zB9Egi75K8QrbN-34" value="provides &#39;key&#39;" style="edgeLabel;resizable=0;html=1;align=center;verticalAlign=middle;fontSize=12;" connectable="0" vertex="1" parent="FPBPx4zB9Egi75K8QrbN-33">
          <mxGeometry relative="1" as="geometry" />
        </mxCell>
        <mxCell id="FPBPx4zB9Egi75K8QrbN-35" value="1" style="ellipse;whiteSpace=wrap;html=1;aspect=fixed;fontSize=12;fillColor=#dae8fc;strokeColor=#6c8ebf;" vertex="1" parent="1">
          <mxGeometry x="154" y="358" width="20" height="20" as="geometry" />
        </mxCell>
        <mxCell id="FPBPx4zB9Egi75K8QrbN-36" value="2" style="ellipse;whiteSpace=wrap;html=1;aspect=fixed;fontSize=12;fillColor=#dae8fc;strokeColor=#6c8ebf;" vertex="1" parent="1">
          <mxGeometry x="192" y="392" width="20" height="20" as="geometry" />
        </mxCell>
        <mxCell id="FPBPx4zB9Egi75K8QrbN-37" value="3" style="ellipse;whiteSpace=wrap;html=1;aspect=fixed;fontSize=12;fillColor=#dae8fc;strokeColor=#6c8ebf;" vertex="1" parent="1">
          <mxGeometry x="319" y="273" width="20" height="20" as="geometry" />
        </mxCell>
        <mxCell id="FPBPx4zB9Egi75K8QrbN-40" value="4" style="ellipse;whiteSpace=wrap;html=1;aspect=fixed;fontSize=12;fillColor=#dae8fc;strokeColor=#6c8ebf;" vertex="1" parent="1">
          <mxGeometry x="521.75" y="372" width="20" height="20" as="geometry" />
        </mxCell>
        <mxCell id="FPBPx4zB9Egi75K8QrbN-41" value="" style="endArrow=classic;html=1;rounded=0;fontSize=12;" edge="1" parent="1">
          <mxGeometry relative="1" as="geometry">
            <mxPoint x="560" y="500" as="sourcePoint" />
            <mxPoint x="490" y="400" as="targetPoint" />
            <Array as="points">
              <mxPoint x="560" y="400" />
            </Array>
          </mxGeometry>
        </mxCell>
        <mxCell id="FPBPx4zB9Egi75K8QrbN-42" value="Access" style="edgeLabel;resizable=0;html=1;align=center;verticalAlign=middle;fontSize=12;" connectable="0" vertex="1" parent="FPBPx4zB9Egi75K8QrbN-41">
          <mxGeometry relative="1" as="geometry" />
        </mxCell>
      </root>
    </mxGraphModel>
  </diagram>
</mxfile>
